<svg width="40" height="40" viewBox="0 0 40 40" fill="none" xmlns="http://www.w3.org/2000/svg">
<g clip-path="url(#clip0_49_307)">
<rect width="40" height="40" rx="20" fill="white"/>
<path d="M27.1432 30.8286C25.8509 32.0424 24.44 31.8507 23.0818 31.2758C21.6444 30.6881 20.3258 30.6625 18.8094 31.2758C16.9105 32.0679 15.9083 31.8379 14.7743 30.8286C8.33931 24.4022 9.28874 14.6157 16.594 14.2579C18.3742 14.3474 19.6137 15.2034 20.6555 15.28C22.2115 14.9734 23.7015 14.0919 25.363 14.2068C27.3542 14.3602 28.8574 15.1267 29.8464 16.5066C25.7322 18.8957 26.708 24.1467 30.4794 25.616C29.7277 27.5324 28.7519 29.436 27.13 30.8414L27.1432 30.8286ZM20.5236 14.1813C20.3258 11.3322 22.7125 8.98139 25.4553 8.75142C25.8377 12.0477 22.3697 14.5007 20.5236 14.1813Z" fill="black"/>
</g>
<rect x="0.5" y="0.5" width="39" height="39" rx="19.5" stroke="#999999"/>
<defs>
<clipPath id="clip0_49_307">
<rect width="40" height="40" rx="20" fill="white"/>
</clipPath>
</defs>
</svg>
